<?xml version="1.0" encoding="UTF-8"?>
<svg width="143px" height="143px" viewBox="0 0 143 143" version="1.1" xmlns="http://www.w3.org/2000/svg" xmlns:xlink="http://www.w3.org/1999/xlink">
    <!-- Generator: Sketch 52.6 (67491) - http://www.bohemiancoding.com/sketch -->
    <title>Group 8</title>
    <desc>Created with Sketch.</desc>
    <g id="Page-1" stroke="none" stroke-width="1" fill="none" fill-rule="evenodd">
        <g id="Group-8">
            <rect id="Rectangle-Copy-8" stroke="#FFFFFF" stroke-width="15" x="7.5" y="7.5" width="128" height="128"></rect>
            <polygon id="T-Copy-3" fill="#FFFFFF" points="67.0507812 37.3398438 51.6875 37.3398438 51.6875 79 39.3476562 79 39.3476562 37.3398438 24.265625 37.3398438 24.265625 27.8125 67.0507812 27.8125"></polygon>
            <path d="M92.5195312,97.2617188 L84.1171875,97.2617188 L84.1171875,116 L73.5703125,116 L73.5703125,64.8125 L92.5898438,64.8125 C98.636749,64.8125 103.300765,66.1601428 106.582031,68.8554688 C109.863298,71.5507947 111.503906,75.3593504 111.503906,80.28125 C111.503906,83.773455 110.748054,86.6855352 109.236328,89.0175781 C107.724602,91.349621 105.433609,93.2070243 102.363281,94.5898438 L113.4375,115.507812 L113.4375,116 L102.117188,116 L92.5195312,97.2617188 Z M84.1171875,88.71875 L92.625,88.71875 C95.2734507,88.71875 97.3242115,88.0449286 98.7773438,86.6972656 C100.230476,85.3496026 100.957031,83.4921993 100.957031,81.125 C100.957031,78.7109254 100.271491,76.8125069 98.9003906,75.4296875 C97.52929,74.0468681 95.4257954,73.3554688 92.5898438,73.3554688 L84.1171875,73.3554688 L84.1171875,88.71875 Z" id="R-Copy-2" fill="#FFFFFF"></path>
        </g>
    </g>
</svg>